<?xml version="1.0" encoding="utf-8"?>
<?xml-stylesheet type="text/xsl" href="rss1.xsl"?>
<rss version="2.0" xmlns:atom="http://www.w3.org/2005/Atom" xmlns:content="http://purl.org/rss/1.0/modules/content/" xmlns:dc="http://purl.org/dc/elements/1.1/" xmlns:media="http://search.yahoo.com/mrss/">
<channel>
 <title>Getty</title>
 <link>http://www.gettyimg.com/</link>
 <atom:link href="http://www.gettyimg.com/" rel="self" type="application/rss+xml" />

 
                <item>
                <title><![CDATA[【HD Live Performances】WEB-DL - CMA Fest 2024 1080p WEB DD5.1 H.264]]></title>
                <link><![CDATA[https://sharemania.us/threads/cma-fest-2024-1080p-web-dd5-1-h-264.247993/]]></link>
                <description><![CDATA[<article>
<blockquote class="messageText SelectQuoteContainer ugc baseHtml">
<div style="text-align: center"><img src="https://i.ibb.co/Hx0yRNN/8294e745feb1b6ecc31e1152c068884e.jpg" class="bbCodeImage LbImage" alt="[​IMG]" data-url="https://i.ibb.co/Hx0yRNN/8294e745feb1b6ecc31e1152c068884e.jpg" style="">​</div><img src="https://i.ibb.co/xHSvR0m/CMA-Fest-2024-1080p-WEB-h264-BAE-mkv.png" class="bbCodeImage LbImage" alt="[​IMG]" data-url="https://i.ibb.co/xHSvR0m/CMA-Fest-2024-1080p-WEB-h264-BAE-mkv.png" style=""><br>
Hosted by Jelly Roll and Ashley McBryde, CMA Fest is a three-hour primetime concert special that brings country music’s ultimate fan experience to a national television audience. Filmed during Nashville’s four-day CMA Fest in June 2024, the television special features performances and surprise collaborations onstage at Nissan Stadium. CMA Fest is executive produced by Robert Deaton.<br>
<div class="ToggleTriggerAnchor bbCodeSpoilerContainer">
<button type="button" class="button bbCodeSpoilerButton ToggleTrigger Tooltip JsOnly" data-target="> .SpoilerTarget"><span>Spoiler: <span class="SpoilerTitle">MediaInfo</span></span></button>
<div class="SpoilerTarget bbCodeSpoilerText">
<div class="bbCodeBlock bbCodeCode">
<div class="type">Code:</div>
<pre>General
Format                                   : Matroska
Format version                           : Version 4
File size                                : 6.57 GiB
Duration                                 : 2 h 5 min
Overall bit rate                         : 7 491 kb/s
Frame rate                               : 29.970 FPS
Encoded date                             : 2024-06-26 13:35:56 UTC
Writing application                      : mkvmerge v85.0 ('Shame For You') 64-bit
Writing library                          : libebml v1.4.5 + libmatroska v1.7.1

Video
ID                                       : 1
Format                                   : AVC
Format/Info                              : Advanced Video Codec
Format profile                           : High@L4
Format settings                          : CABAC / 4 Ref Frames
Format settings, CABAC                   : Yes
Format settings, Reference frames        : 4 frames
Codec ID                                 : V_MPEG4/ISO/AVC
Duration                                 : 2 h 5 min
Bit rate                                 : 7 104 kb/s
Width                                    : 1 920 pixels
Height                                   : 1 080 pixels
Display aspect ratio                     : 16:9
Frame rate mode                          : Constant
Frame rate                               : 29.970 (30000/1001) FPS
Color space                              : YUV
Chroma subsampling                       : 4:2:0
Bit depth                                : 8 bits
Scan type                                : Progressive
Bits/(Pixel*Frame)                       : 0.114
Stream size                              : 6.23 GiB (95%)
Default                                  : Yes
Forced                                   : No
Color range                              : Limited
Color primaries                          : BT.709
Transfer characteristics                 : BT.709
Matrix coefficients                      : BT.709

Audio
ID                                       : 2
Format                                   : AC-3
Format/Info                              : Audio Coding 3
Commercial name                          : Dolby Digital
Codec ID                                 : A_AC3
Duration                                 : 2 h 5 min
Bit rate mode                            : Constant
Bit rate                                 : 384 kb/s
Channel(s)                               : 6 channels
Channel layout                           : L R C LFE Ls Rs
Sampling rate                            : 48.0 kHz
Frame rate                               : 31.250 FPS (1536 SPF)
Compression mode                         : Lossy
Stream size                              : 345 MiB (5%)
Language                                 : English
Service kind                             : Complete Main
Default                                  : Yes
Forced                                   : No
Dialog Normalization                     : -31 dB
cmixlev                                  : -4.5 dB
surmixlev                                : -6 dB
dialnorm_Average                         : -31 dB
dialnorm_Minimum                         : -31 dB
dialnorm_Maximum                         : -31 dB

Text
ID                                       : 3
Format                                   : UTF-8
Codec ID                                 : S_TEXT/UTF8
Codec ID/Info                            : UTF-8 Plain Text
Duration                                 : 2 h 5 min
Bit rate                                 : 216 b/s
Frame rate                               : 0.340 FPS
Count of elements                        : 2558
Stream size                              : 199 KiB (0%)
Language                                 : English
Default                                  : No
Forced                                   : No
</pre>
</div></div>
</div>
<div class="bbCodeBlock bbCodeVfcHH HiddenContent">
<div class="attribution type">Hidden Content:</div>
<blockquote>You must reply before you can see the hidden data contained here.</blockquote>
</div>
<div class="messageTextEndMarker">&nbsp;</div>
</blockquote>
</article>]]></description>
                <author><![CDATA[itunesboy]]></author>
                </item>

                
                <item>
                <title><![CDATA[【HD Live Performances】WEB-DL - Bonnaroo 2024]]></title>
                <link><![CDATA[https://sharemania.us/threads/bonnaroo-2024.247992/]]></link>
                <description><![CDATA[<article>
<blockquote class="messageText SelectQuoteContainer ugc baseHtml">
Hi, this is the first fully and properly captured Bonnaroo<br>
<br>
If you are interested in music festival archival or helping out with future projects, I run a little Discord server <a href="https://discord.gg/cbHYYJh2b8" target="_blank" class="externalLink" rel="nofollow">https://discord.gg/cbHYYJh2b8</a><br>
<br>
All files marked 720p.mkv were downloaded directly from the Hulu stream, any extra files are from alternate sources and marked as such<br>
<br>
<iframe data-s9e-mediaembed="imgur" allowfullscreen="" loading="lazy" onload="var c=new MessageChannel;c.port1.onmessage=function(e){var d=e.data.split(' ');style.height=d[0]+'px';style.width=d[1]+'px'};contentWindow.postMessage('s9e:init','https://s9e.github.io',[c.port2])" scrolling="no" style="border: 0px; height: 968px; max-width: 100%; width: 540px;" src="https://s9e.github.io/iframe/2/imgur.min.html#iqaDAZa"></iframe><br>
<div class="bbCodeBlock bbCodeQuote">
<aside>
<blockquote class="quoteContainer"><div class="quote">Pretty Lights 2024-06-13 Bonnaroo, Manchester, TN (Twitch Stream).mkv<br>
Matt Maltese 2024-06-13 Bonnaroo, Manchester, TN.mkv<br>
Pretty Lights 2024-06-13 Bonnaroo, Manchester, TN Set 2 (Hulu).mkv <br>
Pretty Lights 2024-06-13 Bonnaroo, Manchester, TN Set 1 (Hulu).mkv <br>
Gwar 2024-06-13 Bonnaroo, Manchester, TN.mkv<br>
BigXthaPlug 2024-06-13 Bonnaroo, Manchester, TN.mkv<br>
Durand Bernarr 2024-06-13 Bonnaroo, Manchester, TN (Partial).mkv</div><div class="quoteExpand">Click to expand...</div></blockquote>
</aside>
</div><iframe data-s9e-mediaembed="imgur" allowfullscreen="" loading="lazy" onload="var c=new MessageChannel;c.port1.onmessage=function(e){var d=e.data.split(' ');style.height=d[0]+'px';style.width=d[1]+'px'};contentWindow.postMessage('s9e:init','https://s9e.github.io',[c.port2])" scrolling="no" style="border: 0px; height: 967px; max-width: 100%; width: 540px;" src="https://s9e.github.io/iframe/2/imgur.min.html#ZH6y59D"></iframe><br>
<div class="bbCodeBlock bbCodeQuote">
<aside>
<blockquote class="quoteContainer"><div class="quote">David Kushner 2024-06-14 Bonnaroo, Manchester, TN 720p.mkv<br>
Key Glock 2024-06-14 Bonnaroo, Manchester, TN 720p.mkv<br>
Dominic Fike 2024-06-14 Bonnaroo, Manchester, TN 720p.mkv<br>
T-Pain 2024-06-14 Bonnaroo, Manchester, TN 720p.mkv<br>
Post Malone 2024-06-14 Bonnaroo, Manchester, TN 720p.mkv<br>
Maggie Rogers 2024-06-14 Bonnaroo, Manchester, TN 720p.mkv</div><div class="quoteExpand">Click to expand...</div></blockquote>
</aside>
</div><iframe data-s9e-mediaembed="imgur" allowfullscreen="" loading="lazy" onload="var c=new MessageChannel;c.port1.onmessage=function(e){var d=e.data.split(' ');style.height=d[0]+'px';style.width=d[1]+'px'};contentWindow.postMessage('s9e:init','https://s9e.github.io',[c.port2])" scrolling="no" style="border: 0px; height: 1067px; max-width: 100%; width: 540px;" src="https://s9e.github.io/iframe/2/imgur.min.html#0bIfYwO"></iframe><br>
<div class="bbCodeBlock bbCodeQuote">
<aside>
<blockquote class="quoteContainer"><div class="quote">Lizzy McAlpine 2024-06-14 Bonnaroo, Manchester, TN 720p.mkv<br>
Grouplove 2024-06-14 Bonnaroo, Manchester, TN 720p.mkv<br>
Faye Webster 2024-06-14 Bonnaroo, Manchester, TN 720p.mkv<br>
TV Girl 2024-06-14 Bonnaroo, Manchester, TN 720p.mkv<br>
Gary Clark Jr 2024-06-14 Bonnaroo, Manchester, TN 720p.mkv<br>
Thundercat 2024-06-14 Bonnaroo, Manchester, TN 720p.mkv<br>
Interpol 2024-06-14 Bonnaroo, Manchester, TN 720p.mkv</div><div class="quoteExpand">Click to expand...</div></blockquote>
</aside>
</div><br>
<iframe data-s9e-mediaembed="imgur" allowfullscreen="" loading="lazy" onload="var c=new MessageChannel;c.port1.onmessage=function(e){var d=e.data.split(' ');style.height=d[0]+'px';style.width=d[1]+'px'};contentWindow.postMessage('s9e:init','https://s9e.github.io',[c.port2])" scrolling="no" style="border: 0px; height: 1047px; max-width: 100%; width: 540px;" src="https://s9e.github.io/iframe/2/imgur.min.html#7s0mQu1"></iframe><br>
<div class="bbCodeBlock bbCodeQuote">
<aside>
<blockquote class="quoteContainer"><div class="quote">Jon Batiste 2024-06-15 Bonnaroo, Manchester, TN 720p.mkv<br>
Renee Rapp 2024-06-15 Bonnaroo, Manchester, TN 720p.mkv<br>
Cigarettes after Sex 2024-06-15 Bonnaroo, Manchester, TN 720p.mkv <br>
Gregory Alan Isakov 2024-06-15 Bonnaroo, Manchester, TN 720p.mkv <br>
Cage the Elephant 2024-06-15 Bonnaroo, Manchester, TN 720p.mkv <br>
Melanie Martinez 2024-06-15 Bonnaroo, Manchester, TN 720p.mkv</div><div class="quoteExpand">Click to expand...</div></blockquote>
</aside>
</div><iframe data-s9e-mediaembed="imgur" allowfullscreen="" loading="lazy" onload="var c=new MessageChannel;c.port1.onmessage=function(e){var d=e.data.split(' ');style.height=d[0]+'px';style.width=d[1]+'px'};contentWindow.postMessage('s9e:init','https://s9e.github.io',[c.port2])" scrolling="no" style="border: 0px; height: 1016px; max-width: 100%; width: 540px;" src="https://s9e.github.io/iframe/2/imgur.min.html#Y6efmfY"></iframe><br>
<div class="bbCodeBlock bbCodeQuote">
<aside>
<blockquote class="quoteContainer"><div class="quote">Parcels 2024-06-15 Bonnaroo, Manchester, TN 720p.mkv<br>
Bakar 2024-06-15 Bonnaroo, Manchester, TN 720p.mkv<br>
Sean Paul 2024-06-15 Bonnaroo, Manchester, TN 720p.mkv<br>
Brittany Howard 2024-06-15 Bonnaroo, Manchester, TN 720p.mkv<br>
Teezo Touchdown 2024-06-15 Bonnaroo, Manchester, TN 720p.mkv<br>
The Teskey Brothers 2024-06-15 Bonnaroo, Manchester, TN 720p.mkv<br>
Pretty Lights 2024-06-15 Bonnaroo Sunrise Set, Manchester, TN.mkv<br>
Red Hot Chili Peppers - Live at Bonnaroo 2024 (VR360 Braindance) [FcW7G9F1vtk].webm</div><div class="quoteExpand">Click to expand...</div></blockquote>
</aside>
</div><iframe data-s9e-mediaembed="imgur" allowfullscreen="" loading="lazy" onload="var c=new MessageChannel;c.port1.onmessage=function(e){var d=e.data.split(' ');style.height=d[0]+'px';style.width=d[1]+'px'};contentWindow.postMessage('s9e:init','https://s9e.github.io',[c.port2])" scrolling="no" style="border: 0px; height: 1071px; max-width: 100%; width: 540px;" src="https://s9e.github.io/iframe/2/imgur.min.html#OIBBHUf"></iframe><br>
<div class="bbCodeBlock bbCodeQuote">
<aside>
<blockquote class="quoteContainer"><div class="quote">Carley Rae Jepsen 2024-06-16 Bonnaroo, Manchester, TN 720p.mkv<br>
Goth Babe 2024-06-16 Bonnaroo, Manchester, TN 720p.mkv<br>
Ashnikko 2024-06-16 Bonnaroo, Manchester, TN 720p.mkv<br>
Joey Badass 2024-06-16 Bonnaroo, Manchester, TN 720p.mkv<br>
Chappell Roan 2024-06-16 Bonnaroo, Manchester, TN 720p.mkv<br>
Khruangbin 2024-06-16 Bonnaroo, Manchester, TN 720p.mkv<br>
Idles 2024-06-16 Bonnaroo, Manchester, TN 720p.mkv<br>
Fred Again 2024-06-16 Bonnaroo, Manchester, TN (Fan Cam).mkv<br>
Fred Again Live Bonnaroo 2024 Full Set Ultra HDR 4K Surround Sound Bass Boosted.webm</div><div class="quoteExpand">Click to expand...</div></blockquote>
</aside>
</div><iframe data-s9e-mediaembed="imgur" allowfullscreen="" loading="lazy" onload="var c=new MessageChannel;c.port1.onmessage=function(e){var d=e.data.split(' ');style.height=d[0]+'px';style.width=d[1]+'px'};contentWindow.postMessage('s9e:init','https://s9e.github.io',[c.port2])" scrolling="no" style="border:0;height:400px;max-width:100%;width:542px" src="https://s9e.github.io/iframe/2/imgur.min.html#xxB8Wot"></iframe><br>
<div class="bbCodeBlock bbCodeQuote">
<aside>
<blockquote class="quoteContainer"><div class="quote">Yves Tumor (Corrected Version) 2024-06-16 Bonnaroo, Manchester, TN 720p.mkv<br>
Yves Tumor (As Broadcast with Negative Filter) 2024-06-16 Bonnaroo, Manchester, TN 720p.mkv<br>
Charles Wesley Godwin 2024-06-16 Bonnaroo, Manchester, TN 720p.mkv<br>
Milky Chance 2024-06-16 Bonnaroo, Manchester, TN 720p.mkv<br>
Greensky Bluegrass 2024-06-16 Bonnaroo, Manchester, TN 720p.mkv<br>
BADBADNOTGOOD 2024-06-16 Bonnaroo, Manchester, TN 720p.mkv<br>
Taking Back Sunday 2024-06-16 Bonnaroo, Manchester, TN 720p.mkv<br>
Jason Isbell and the 400 Unit 2024-06-16 Bonnaroo, Manchester, TN 720p.mkv</div><div class="quoteExpand">Click to expand...</div></blockquote>
</aside>
</div>
<div class="ToggleTriggerAnchor bbCodeSpoilerContainer">
<button type="button" class="button bbCodeSpoilerButton ToggleTrigger Tooltip JsOnly" data-target="> .SpoilerTarget"><span>Spoiler: <span class="SpoilerTitle">mediainfo</span></span></button>
<div class="SpoilerTarget bbCodeSpoilerText">
<div class="bbCodeBlock bbCodeCode">
<div class="type">Code:</div>
<pre>General
Unique ID                                : 255022080147899928035959409011325357832 (0xBFDB774FF2F72E56D78E4FB624074F08)
Complete name                            : Chappell Roan 2024-06-16 Bonnaroo, Manchester, TN 720p.mkv
Format                                   : Matroska
Format version                           : Version 4
File size                                : 1.43 GiB
Duration                                 : 58 min 39 s
Overall bit rate                         : 3 498 kb/s
Encoded date                             : UTC 2024-06-17 18:20:22
Writing application                      : mkvmerge v85.0 ('Shame For You') 64-bit
Writing library                          : libebml v1.4.5 + libmatroska v1.7.1 / Lavf60.3.100
MOVIE/ENCODER                            : Lavf61.1.100
FileExtension_Invalid                    : mkv mk3d mka mks

Video
ID                                       : 1
Format                                   : AVC
Format/Info                              : Advanced Video Codec
Format profile                           : High@L4
Format settings                          : CABAC / 4 Ref Frames
Format settings, CABAC                   : Yes
Format settings, Reference frames        : 4 frames
Codec ID                                 : V_MPEG4/ISO/AVC
Duration                                 : 58 min 39 s
Bit rate mode                            : Constant
Bit rate                                 : 3 372 kb/s
Width                                    : 1 280 pixels
Height                                   : 720 pixels
Display aspect ratio                     : 16:9
Frame rate mode                          : Constant
Frame rate                               : 29.970 (30000/1001) FPS
Color space                              : YUV
Chroma subsampling                       : 4:2:0
Bit depth                                : 8 bits
Scan type                                : Progressive
Bits/(Pixel*Frame)                       : 0.122
Stream size                              : 1.38 GiB (96%)
Default                                  : Yes
Forced                                   : No

Audio
ID                                       : 2
Format                                   : AAC LC
Format/Info                              : Advanced Audio Codec Low Complexity
Codec ID                                 : A_AAC-2
Duration                                 : 58 min 38 s
Bit rate                                 : 125 kb/s
Channel(s)                               : 2 channels
Channel layout                           : L R
Sampling rate                            : 48.0 kHz
Frame rate                               : 46.875 FPS (1024 SPF)
Compression mode                         : Lossy
Delay relative to video                  : 18 ms
Stream size                              : 52.6 MiB (4%)
Default                                  : Yes
Forced                                   : No</pre>
</div></div>
</div><br>
<a href="https://buzzheavier.com/fl/GQ-CNuISkAA=" target="_blank" class="externalLink" rel="nofollow">BONNAROO 2024 - DAY 1 - THURSDAY</a><br>
<a href="https://buzzheavier.com/fl/GQ-OC5dSkAA=" target="_blank" class="externalLink" rel="nofollow">BONNAROO 2024 - DAY 2 - FRIDAY</a><br>
<a href="https://buzzheavier.com/fl/GQ-bENuSkAA=" target="_blank" class="externalLink" rel="nofollow">BONNAROO 2024 - DAY 3 - SATURDAY</a><br>
<a href="https://buzzheavier.com/fl/GQ-tH4LSkAA=" target="_blank" class="externalLink" rel="nofollow">BONNAROO 2024 - DAY 4 - SUNDAY</a>
<div class="messageTextEndMarker">&nbsp;</div>
</blockquote>
</article>]]></description>
                <author><![CDATA[mrballsthefake]]></author>
                </item>

                </channel></rss>